<svg width="39.420914" height="30.000000" viewBox="0 0 39.4209 30" fill="none" xmlns="http://www.w3.org/2000/svg" xmlns:xlink="http://www.w3.org/1999/xlink">
	<desc>
			Created with Pixso.
	</desc>
	<defs/>
	<rect id="Frame" width="39.420906" height="30.000000" fill="#FFFFFF" fill-opacity="0"/>
	<path id="Vector" d="M34.6085 0L4.82056 0C2.1615 0 0 2.16162 0 4.82056L0 25.1794C0 27.8384 2.1615 30 4.82056 30L34.6003 30C37.2594 30 39.4209 27.8384 39.4209 25.1794L39.4209 4.82861C39.429 2.16968 37.2675 0 34.6085 0ZM37.2268 25.1794C37.2268 26.623 36.0522 27.7976 34.6085 27.7976L4.82056 27.7976C3.37683 27.7976 2.20227 26.623 2.20227 25.1794L2.20227 4.82861C2.20227 3.38501 3.37683 2.21045 4.82056 2.21045L34.6003 2.21045C36.0441 2.21045 37.2186 3.38501 37.2186 4.82861L37.2186 25.1794L37.2268 25.1794Z" fill="#FFFFFF" fill-opacity="1.000000" fill-rule="nonzero"/>
	<path id="Vector" d="M24.8613 14.7473L34.5024 6.10132C34.951 5.69336 34.9918 5 34.5839 4.54321C34.1761 4.09473 33.4828 4.05396 33.026 4.46167L19.7307 16.3948L17.137 14.0784C17.1288 14.0703 17.1206 14.062 17.1206 14.054C17.0635 13.9968 17.0064 13.9478 16.9412 13.8989L6.38654 4.45361C5.92978 4.04565 5.23645 4.08643 4.82864 4.54321C4.42081 5 4.46158 5.69336 4.91837 6.10132L14.6736 14.8206L4.95914 23.9153C4.51868 24.3313 4.4942 25.0247 4.91019 25.4731C5.13043 25.7017 5.42407 25.824 5.71771 25.824C5.98688 25.824 6.25604 25.7261 6.46811 25.5303L16.3294 16.3052L19.0048 18.6951C19.2169 18.8826 19.4779 18.9724 19.7389 18.9724C19.9999 18.9724 20.2691 18.8745 20.473 18.6868L23.2218 16.2236L33.026 25.5383C33.2381 25.7424 33.5154 25.8401 33.7846 25.8401C34.0782 25.8401 34.3637 25.7261 34.5839 25.4976C34.9999 25.0571 34.9836 24.3557 34.5432 23.9397L24.8613 14.7473Z" fill="#FFFFFF" fill-opacity="1.000000" fill-rule="nonzero"/>
</svg>
