<svg width="64.010254" height="56.923279" viewBox="0 0 64.0103 56.9233" fill="none" xmlns="http://www.w3.org/2000/svg" xmlns:xlink="http://www.w3.org/1999/xlink">
	<desc>
			Created with Pixso.
	</desc>
	<defs/>
	<path id="path" d="M60.0477 0.990051C47.0815 2.01727 32.9164 6.77795 39.9252 25.2082C57.5302 32.5455 62.0777 17.7165 63.059 4.14374C63.189 2.35101 61.759 0.853943 60.0477 0.990051Z" fill="#7C6A7A" fill-opacity="1.000000" fill-rule="nonzero"/>
	<path id="path" d="M49.9965 2.74884C48.489 3.4162 47.7078 5.19983 48.2415 6.84869C48.8002 8.57599 50.5915 9.5025 52.2415 8.91626L55.5602 11.9653C55.0652 13.7136 56.0178 15.5521 57.689 16.0703C59.2915 16.5676 60.9715 15.6699 61.5427 14.0525C59.0452 23.6772 53.1927 30.7383 39.9252 25.2083C34.7552 11.6146 41.1052 5.45764 49.9965 2.74884Z" fill="#6D5C6C" fill-opacity="1.000000" fill-rule="nonzero"/>
	<path id="path" d="M3.96277 0.990051C16.929 2.01727 31.094 6.77924 24.084 25.2082C6.48029 32.5455 1.93274 17.7165 0.951538 4.14246C0.821533 2.35101 2.25153 0.853943 3.96277 0.990051Z" fill="#6D5C6C" fill-opacity="1.000000" fill-rule="nonzero"/>
	<path id="path" d="M14.014 2.74884C15.5215 3.4162 16.3028 5.19983 15.769 6.84869C15.2103 8.57599 13.419 9.5025 11.769 8.91626L8.45026 11.9653C8.94525 13.7136 7.9928 15.5521 6.32153 16.0703C4.71899 16.5676 3.039 15.6699 2.46777 14.0525C4.96527 23.6772 10.8177 30.7383 24.0853 25.2083C29.2552 11.6146 22.9053 5.45764 14.014 2.74884Z" fill="#5B4A5B" fill-opacity="1.000000" fill-rule="nonzero"/>
	<path id="path" d="M15.664 20.6098C13.8065 20.6098 11.8465 20.1375 10.0915 16.7128C8.98523 14.5524 8.16522 11.6302 7.64148 7.99237C15.384 9.20807 18.024 11.6879 18.9215 13.1927C20.009 15.0156 19.7877 17.6276 19.159 20.055C17.869 20.424 16.699 20.6098 15.664 20.6098Z" fill="#ED7C7C" fill-opacity="1.000000" fill-rule="nonzero"/>
	<path id="path" d="M48.3465 20.6098C50.204 20.6098 52.164 20.1375 53.919 16.7128C55.0253 14.5524 55.8453 11.6302 56.369 7.99237C48.6265 9.20807 45.9865 11.6879 45.089 13.1927C44.0015 15.0156 44.2228 17.6276 44.8515 20.055C46.1415 20.424 47.3115 20.6098 48.3465 20.6098Z" fill="#ED7C7C" fill-opacity="1.000000" fill-rule="nonzero"/>
	<path id="path" d="M62.0165 34.2741C59.3203 31.8637 55.0002 27.4995 53.6465 23.2492C51.8552 17.621 48.194 13.0513 43.5303 10.1921C40.114 8.09833 36.1565 6.92059 32.0052 6.92059C27.854 6.92059 23.9003 8.09705 20.4827 10.1908C15.819 13.05 12.1553 17.6223 10.364 23.2492C9.01147 27.5009 4.69025 31.8637 1.99402 34.2741C0.768982 35.3694 0.587769 37.2812 1.59027 38.6016L4.32776 42.2068C3.90149 43.5455 4.38397 45.0177 5.50525 45.8002L10.0765 48.9905C16.5715 53.5236 24.2003 55.9418 32.0052 55.9418C39.8102 55.9418 47.439 53.5236 53.9327 48.9919L58.504 45.8015C59.6252 45.019 60.1077 43.5468 59.6815 42.2081L62.419 38.603C63.4227 37.2826 63.2415 35.3707 62.0165 34.2741Z" fill="#7C6A7A" fill-opacity="1.000000" fill-rule="nonzero"/>
	<path id="path" d="M18.2552 31.7839C18.2552 20.051 26.4277 10.2169 37.4202 7.6037C35.6752 7.15747 33.8602 6.92059 32.0052 6.92059C27.854 6.92059 23.9003 8.0957 20.4827 10.1908C15.819 13.05 12.1553 17.6223 10.364 23.2492C9.01147 27.5009 4.69025 31.8637 1.99402 34.2741C0.768982 35.3694 0.587769 37.2812 1.59027 38.6016L4.32776 42.2068C3.90149 43.5455 4.38397 45.0177 5.50525 45.8002L10.0765 48.9905C16.5715 53.5236 24.2003 55.9418 32.0052 55.9418C33.4653 55.9418 34.9202 55.8568 36.3615 55.6893C25.9077 52.7135 18.2552 43.1372 18.2552 31.7839Z" fill="#6D5C6C" fill-opacity="1.000000" fill-rule="nonzero"/>
	<ellipse id="circle" cx="43.859009" cy="29.143127" rx="6.250000" ry="6.542969" fill="#F7DD5A" fill-opacity="1.000000"/>
	<path id="path" d="M13.959 28.2533C13.9077 28.6485 13.8903 29.0555 13.909 29.469C14.0652 32.8334 16.6965 35.5552 19.9127 35.6808C23.4727 35.8196 26.4015 32.8386 26.4015 29.1431C26.4015 28.8566 26.384 28.5739 26.349 28.2965C26.1665 26.8165 24.8365 25.7892 23.434 26.0575C21.2352 26.4788 19.059 26.4775 16.8665 26.0588C15.4827 25.7958 14.149 26.7929 13.959 28.2533Z" fill="#F7DD5A" fill-opacity="1.000000" fill-rule="nonzero"/>
	<path id="path" d="M22.0265 27.8346C22.0265 27.23 21.7653 26.6909 21.3552 26.331C20.5515 26.3873 19.749 26.3873 18.9465 26.331C18.5365 26.6909 18.2765 27.23 18.2765 27.8346C18.2765 28.9181 19.1165 29.7975 20.1515 29.7975C21.1865 29.7975 22.0265 28.9194 22.0265 27.8346Z" fill="#FFFFFF" fill-opacity="1.000000" fill-rule="nonzero"/>
	<ellipse id="circle" cx="43.859009" cy="26.525940" rx="1.875000" ry="1.962892" fill="#FFFFFF" fill-opacity="1.000000"/>
	<path id="path" d="M62.6252 33.5283C60.724 31.8284 57.7128 28.8749 55.8403 25.7395C60.469 22.2665 63.2128 15.0339 63.994 4.21704C64.0765 3.07727 63.6802 1.95972 62.9065 1.14972C62.1328 0.339661 61.0652 -0.0751343 59.9765 0.0112305C50.429 0.767578 43.7915 3.28009 40.229 7.48199C37.6065 6.46912 34.8203 5.94049 32.0052 5.94049C29.1877 5.94049 26.4015 6.46912 23.7803 7.48199C20.219 3.28143 13.5815 0.768921 4.034 0.0125122C2.94525 -0.0738525 1.87775 0.341003 1.104 1.151C0.330261 1.96106 -0.065979 3.07855 0.0164795 4.21838C0.799011 15.0352 3.5415 22.2665 8.17023 25.7408C6.29773 28.8762 3.2865 31.8297 1.38525 33.5309C-0.233521 34.9781 -0.464722 37.475 0.856506 39.2154L3.30524 42.4371C3.01898 44.0363 3.6665 45.6968 4.98651 46.6181L9.55774 49.8085C16.2265 54.4631 23.989 56.9233 32.0052 56.9233C40.0215 56.9233 47.784 54.4631 54.4528 49.8085L59.024 46.6181C60.344 45.6968 60.9915 44.0375 60.7053 42.4371L63.1528 39.2141C64.4752 37.4724 64.244 34.9755 62.6252 33.5283ZM60.1177 1.96759C60.6603 1.92438 61.194 2.13245 61.5803 2.5368C61.9665 2.94116 62.1653 3.49994 62.124 4.06787C61.3965 14.1257 58.9802 20.8218 54.9365 23.9991C54.7828 23.6458 54.6465 23.2911 54.534 22.9391C54.159 21.7614 53.7015 20.6216 53.169 19.5276C53.7377 18.8995 54.2565 18.1261 54.7427 17.1774C55.8965 14.924 56.7552 11.8828 57.2927 8.1402C57.3365 7.8327 57.239 7.51996 57.029 7.30011C56.819 7.08026 56.5215 6.97687 56.2265 7.02271C51.6152 7.74634 48.189 8.99603 46.0265 10.7404C45.3802 10.2444 44.7078 9.77991 44.0103 9.35199C44.0065 9.34937 44.0015 9.34674 43.9977 9.34412C43.3715 8.96069 42.729 8.60999 42.074 8.28809C45.4103 4.77844 51.4678 2.65326 60.1177 1.96759ZM52.194 17.71C50.9327 15.5782 49.369 13.6559 47.5527 12.0097C48.9065 11.0427 51.239 9.94214 55.2302 9.18445C54.7265 12.0895 54.009 14.462 53.0928 16.2496C52.8065 16.807 52.5052 17.2938 52.194 17.71ZM1.88525 4.06915C1.84399 3.50128 2.04272 2.9425 2.42902 2.53815C2.81525 2.13379 3.349 1.92572 3.89148 1.96887C12.5415 2.6546 18.599 4.77972 21.9315 8.28937C21.2803 8.6087 20.6403 8.95807 20.0165 9.34021C20.0103 9.34412 20.0027 9.34802 19.9965 9.35327C19.299 9.78119 18.6265 10.2457 17.979 10.7417C15.819 8.99866 12.394 7.74896 7.78027 7.02527C7.48651 6.97949 7.18903 7.08154 6.97778 7.30273C6.76776 7.52258 6.66901 7.83398 6.71399 8.14282C7.25275 11.8867 8.11023 14.9279 9.26398 17.18C9.75024 18.1287 10.269 18.9034 10.8378 19.5316C10.3065 20.6255 9.84778 21.7653 9.47278 22.9431C9.36023 23.295 9.224 23.6497 9.07025 24.0043C5.02899 20.8231 2.61273 14.127 1.88525 4.06915ZM11.8177 17.7087C11.5052 17.2925 11.204 16.807 10.919 16.2483C10.0027 14.4608 9.2865 12.0883 8.78149 9.18317C12.7615 9.93689 15.0953 11.0322 16.459 12.0071C14.6428 13.6546 13.079 15.577 11.8177 17.7087ZM61.6852 37.9919L58.9478 41.5957C58.7502 41.8549 58.6915 42.2016 58.7927 42.517C59.084 43.433 58.7527 44.4471 57.984 44.9837L53.4128 48.174C47.0527 52.6141 39.6503 54.9604 32.0052 54.9604C24.3602 54.9604 16.9578 52.6141 10.5978 48.1754L6.02649 44.985C5.25903 44.4498 4.92651 43.4343 5.21777 42.5183C5.31775 42.2029 5.25903 41.8575 5.06274 41.597L2.32526 37.9919C1.63525 37.0824 1.75775 35.7777 2.604 35.0214C8.38275 29.8537 10.4977 25.9371 11.2552 23.5607C12.9327 18.2936 16.3777 13.847 20.9478 11.0453C20.954 11.0414 20.9615 11.0375 20.9678 11.0335C24.3115 8.9856 28.129 7.90338 32.0078 7.90338C35.8878 7.90338 39.7065 8.98688 43.0515 11.0361C47.6302 13.8431 51.0828 18.2936 52.759 23.5607C53.5153 25.9371 55.6302 29.8537 61.4103 35.0214C62.254 35.7777 62.3765 37.0824 61.6852 37.9919Z" fill="#000000" fill-opacity="1.000000" fill-rule="nonzero"/>
	<path id="path" d="M51.0465 29.1431C51.0465 24.9936 47.8228 21.6187 43.859 21.6187C39.8953 21.6187 36.6715 24.9936 36.6715 29.1431C36.6715 33.2927 39.8953 36.6675 43.859 36.6675C47.8228 36.6675 51.0465 33.2927 51.0465 29.1431ZM43.859 34.7047C40.9302 34.7047 38.5465 32.2092 38.5465 29.1431C38.5465 26.0771 40.9302 23.5816 43.859 23.5816C46.7878 23.5816 49.1715 26.0771 49.1715 29.1431C49.1715 32.2092 46.7878 34.7047 43.859 34.7047Z" fill="#000000" fill-opacity="1.000000" fill-rule="nonzero"/>
	<path id="path" d="M25.8953 25.7251C25.1302 25.1402 24.1965 24.9164 23.2665 25.0931C21.169 25.4948 19.1315 25.4948 17.0353 25.0944C16.1202 24.919 15.1615 25.148 14.4053 25.7212C13.644 26.2996 13.1553 27.1515 13.029 28.1198C12.969 28.5792 12.9503 29.049 12.9715 29.5161C13.1515 33.3791 16.184 36.5171 19.8765 36.661C19.969 36.665 20.0615 36.6663 20.154 36.6663C22.024 36.6663 23.784 35.9243 25.1365 34.5607C26.5565 33.1292 27.3378 31.2042 27.3378 29.1418C27.3378 28.8173 27.3177 28.4902 27.2778 28.1696C27.159 27.196 26.654 26.3048 25.8953 25.7251ZM23.8365 33.1487C22.7878 34.2061 21.4053 34.757 19.9478 34.7007C17.219 34.5948 14.979 32.2759 14.8453 29.4219C14.829 29.0751 14.8428 28.7257 14.8878 28.3855C14.944 27.9523 15.164 27.5703 15.5065 27.3098C15.7765 27.1044 16.0928 26.9971 16.4165 26.9971C16.5103 26.9971 16.604 27.0062 16.6978 27.0245C19.0203 27.4681 21.2778 27.4681 23.6028 27.0233C24.0215 26.9434 24.4427 27.0442 24.789 27.3098C25.139 27.5781 25.3628 27.9733 25.419 28.4235C25.4478 28.6603 25.4628 28.9024 25.4628 29.1432C25.464 30.669 24.8865 32.0914 23.8365 33.1487Z" fill="#000000" fill-opacity="1.000000" fill-rule="nonzero"/>
	<path id="path" d="M20.6427 23.07C21.2515 23.07 21.8677 22.9077 22.4315 22.5675C22.8802 22.2966 23.034 21.696 22.7752 21.2262C22.5165 20.7564 21.9427 20.5967 21.494 20.8663C20.6752 21.361 19.6252 21.0665 19.1527 20.2094C18.894 19.7396 18.3202 19.5787 17.8715 19.8495C17.4227 20.1204 17.269 20.7211 17.5277 21.1909C18.1927 22.3961 19.4015 23.07 20.6427 23.07Z" fill="#000000" fill-opacity="1.000000" fill-rule="nonzero"/>
	<path id="path" d="M41.9839 18.1418C42.224 18.1418 42.464 18.0463 42.6465 17.8539C43.3152 17.1538 44.4027 17.1538 45.0702 17.8539C45.4365 18.2373 46.0302 18.2373 46.3965 17.8539C46.7627 17.4705 46.7627 16.8489 46.3965 16.4655C44.9977 15.0012 42.7202 14.9999 41.3202 16.4655C40.954 16.8489 40.954 17.4705 41.3202 17.8539C41.504 18.0463 41.744 18.1418 41.9839 18.1418Z" fill="#000000" fill-opacity="1.000000" fill-rule="nonzero"/>
	<path id="path" d="M14.8765 38.158C12.5778 37.1897 8.97522 37.1897 6.67651 38.158C6.19647 38.3608 5.96399 38.9327 6.15649 39.4352C6.30396 39.8173 6.65521 40.0502 7.02649 40.0502C7.14276 40.0502 7.26147 40.028 7.37646 39.9796C9.21899 39.2036 12.334 39.2036 14.1765 39.9796C14.6565 40.1824 15.2028 39.9377 15.3965 39.4352C15.589 38.9314 15.3565 38.3596 14.8765 38.158Z" fill="#000000" fill-opacity="1.000000" fill-rule="nonzero"/>
	<path id="path" d="M14.3953 41.368C12.6902 41.6219 10.5215 42.9318 9.45898 44.3516C9.14026 44.7782 9.21149 45.3946 9.61896 45.7296C9.79022 45.8709 9.99396 45.939 10.1965 45.939C10.4752 45.939 10.7502 45.8094 10.9352 45.5634C11.7103 44.5283 13.4152 43.4971 14.659 43.3126C15.1715 43.2367 15.5277 42.7394 15.4553 42.2029C15.3815 41.6651 14.9077 41.2921 14.3953 41.368Z" fill="#000000" fill-opacity="1.000000" fill-rule="nonzero"/>
	<path id="path" d="M57.334 38.158C55.0353 37.1897 51.4327 37.1897 49.134 38.158C48.654 38.3608 48.4215 38.9327 48.614 39.4352C48.8077 39.9377 49.3528 40.1811 49.834 39.9796C51.6777 39.2036 54.7915 39.2036 56.634 39.9796C56.749 40.028 56.8665 40.0502 56.984 40.0502C57.3552 40.0502 57.7065 39.8173 57.854 39.4352C58.0465 38.9314 57.814 38.3596 57.334 38.158Z" fill="#000000" fill-opacity="1.000000" fill-rule="nonzero"/>
	<path id="path" d="M49.6152 41.368C49.104 41.2921 48.6277 41.665 48.5552 42.2016C48.4828 42.7381 48.839 43.2354 49.3515 43.3113C50.5953 43.4958 52.3003 44.527 53.0753 45.5621C53.2603 45.8094 53.5353 45.9376 53.814 45.9376C54.0165 45.9376 54.2203 45.8696 54.3915 45.7283C54.799 45.3946 54.8702 44.7769 54.5515 44.3503C53.489 42.9318 51.3215 41.6219 49.6152 41.368Z" fill="#000000" fill-opacity="1.000000" fill-rule="nonzero"/>
	<path id="path" d="M32.0078 30.4517C32.5253 30.4517 32.9453 30.012 32.9453 29.4703C32.9453 28.9285 32.5253 28.4888 32.0078 28.4888C31.4902 28.4888 31.0703 28.9285 31.0703 29.4703C31.0703 30.012 31.4902 30.4517 32.0078 30.4517Z" fill="#000000" fill-opacity="1.000000" fill-rule="nonzero"/>
	<path id="path" d="M34.9102 37.0994C33.6965 36.4595 32.9427 35.1783 32.9427 33.7559L32.9427 33.3961C32.9427 32.8543 32.5227 32.4146 32.0052 32.4146C31.4877 32.4146 31.0677 32.8543 31.0677 33.3961L31.0677 33.7559C31.0677 35.1783 30.314 36.4595 29.1002 37.0994C28.6377 37.3428 28.4515 37.9329 28.684 38.4171C28.849 38.76 29.179 38.9576 29.5227 38.9576C29.6639 38.9576 29.8077 38.9236 29.944 38.8529C30.7952 38.4041 31.4952 37.7471 32.0065 36.9594C32.5177 37.7471 33.2177 38.4041 34.069 38.8529C34.204 38.9236 34.3477 38.9576 34.4902 38.9576C34.8327 38.9576 35.1639 38.76 35.329 38.4171C35.559 37.9329 35.3727 37.3441 34.9102 37.0994Z" fill="#000000" fill-opacity="1.000000" fill-rule="nonzero"/>
</svg>
