<!-- icon666.com - MILLIONS vector ICONS FREE --><svg id="_x30_1" viewBox="0 0 512 512" xmlns="http://www.w3.org/2000/svg"><g><g><path d="m480.34 46.07c-103.73 7.85-217.05 44.23-160.98 185.07 140.84 56.07 177.22-57.25 185.07-160.97 1.04-13.7-10.4-25.14-24.09-24.1z" fill="#7c6a7a"></path></g><g><path d="m399.93 59.51c-12.06 5.1-18.31 18.73-14.04 31.33 4.47 13.2 18.8 20.28 32 15.8l26.55 23.3c-3.96 13.36 3.66 27.41 17.03 31.37 12.82 3.8 26.26-3.06 30.83-15.42-19.98 73.55-66.8 127.51-172.94 85.25-41.36-103.88 9.44-150.93 80.57-171.63z" fill="#6d5c6c"></path></g><g><path d="m31.66 46.07c103.73 7.85 217.05 44.24 160.97 185.07-140.83 56.07-177.21-57.25-185.06-160.98-1.04-13.69 10.4-25.13 24.09-24.09z" fill="#6d5c6c"></path></g><g><path d="m112.07 59.51c12.06 5.1 18.31 18.73 14.04 31.33-4.47 13.2-18.8 20.28-32 15.8l-26.55 23.3c3.96 13.36-3.66 27.41-17.03 31.37-12.82 3.8-26.26-3.06-30.83-15.42 19.98 73.55 66.8 127.51 172.94 85.25 41.36-103.88-9.44-150.93-80.57-171.63z" fill="#5b4a5b"></path></g><g><path d="m125.27 196c-14.86 0-30.54-3.61-44.58-29.78-8.85-16.51-15.41-38.84-19.6-66.64 61.94 9.29 83.06 28.24 90.24 39.74 8.7 13.93 6.93 33.89 1.9 52.44-10.32 2.82-19.68 4.24-27.96 4.24z" fill="#ed7c7c"></path></g><g><path d="m386.73 196c14.86 0 30.54-3.61 44.58-29.78 8.85-16.51 15.41-38.84 19.6-66.64-61.94 9.29-83.06 28.24-90.24 39.74-8.7 13.93-6.93 33.89-1.9 52.44 10.32 2.82 19.68 4.24 27.96 4.24z" fill="#ed7c7c"></path></g><g><path d="m496.09 300.42c-21.57-18.42-56.13-51.77-66.96-84.25-14.33-43.01-43.62-77.93-80.93-99.78-.01 0-.01-.01-.02-.01-27.33-16-58.97-24.99-92.18-24.99-33.21 0-64.84 8.99-92.18 24.99-.01 0-.01.01-.02.01-37.31 21.85-66.6 56.78-80.93 99.78-10.82 32.49-45.39 65.83-66.96 84.25-9.8 8.37-11.25 22.98-3.23 33.07l21.9 27.55c-3.41 10.23.45 21.48 9.42 27.46l36.57 24.38c51.96 34.64 112.99 53.12 175.43 53.12 62.44 0 123.47-18.48 175.42-53.11l36.57-24.38c8.97-5.98 12.83-17.23 9.42-27.46l21.9-27.55c8.03-10.09 6.58-24.7-3.22-33.08z" fill="#7c6a7a"></path></g><g><path d="m146 281.39c0-89.66 65.38-164.81 153.32-184.78-13.96-3.41-28.48-5.22-43.32-5.22-33.21 0-64.84 8.98-92.18 24.99-.01 0-.01.01-.02.01-37.31 21.85-66.6 56.78-80.93 99.78-10.82 32.49-45.39 65.83-66.96 84.25-9.8 8.37-11.25 22.98-3.23 33.07l21.9 27.55c-3.41 10.23.45 21.48 9.42 27.46l36.57 24.38c51.96 34.64 112.99 53.12 175.43 53.12 11.68 0 23.32-.65 34.85-1.93-83.63-22.74-144.85-95.92-144.85-182.68z" fill="#6d5c6c"></path></g><g><circle cx="350.83" cy="261.21" fill="#f7dd5a" r="50"></circle></g><g><path d="m111.63 254.41c-.41 3.02-.55 6.13-.4 9.29 1.25 25.71 22.3 46.51 48.03 47.47 28.48 1.06 51.91-21.72 51.91-49.96 0-2.19-.14-4.35-.42-6.47-1.46-11.31-12.1-19.16-23.32-17.11-17.59 3.22-35 3.21-52.54.01-11.07-2.01-21.74 5.61-23.26 16.77z" fill="#f7dd5a"></path></g><g><path d="m176.17 251.21c0-4.62-2.09-8.74-5.37-11.49-6.43.43-12.85.43-19.27 0-3.28 2.75-5.36 6.87-5.36 11.49 0 8.28 6.72 15 15 15s15-6.71 15-15z" fill="#fff"></path></g><g><circle cx="350.83" cy="241.21" fill="#fff" r="15"></circle></g><g><path d="m500.96 294.72c-15.21-12.99-39.3-35.56-54.28-59.52 37.03-26.54 58.98-81.81 65.23-164.47.66-8.71-2.51-17.25-8.7-23.44s-14.73-9.36-23.44-8.7c-76.38 5.78-129.48 24.98-157.98 57.09-20.98-7.74-43.27-11.78-65.79-11.78-22.54 0-44.83 4.04-65.8 11.78-28.49-32.1-81.59-51.3-157.97-57.08-8.71-.66-17.25 2.51-23.44 8.7s-9.36 14.73-8.7 23.44c6.26 82.66 28.2 137.92 65.23 164.47-14.98 23.96-39.07 46.53-54.28 59.53-12.95 11.06-14.8 30.14-4.23 43.44l19.59 24.62c-2.29 12.22 2.89 24.91 13.45 31.95l36.57 24.38c53.35 35.57 115.45 54.37 179.58 54.37s126.23-18.8 179.58-54.37l36.57-24.38c10.56-7.04 15.74-19.72 13.45-31.95l19.58-24.63c10.58-13.31 8.73-32.39-4.22-43.45zm-20.06-241.18c4.34-.33 8.61 1.26 11.7 4.35s4.68 7.36 4.35 11.7c-5.82 76.86-25.15 128.03-57.5 152.31-1.23-2.7-2.32-5.41-3.22-8.1-3-9-6.66-17.71-10.92-26.07 4.55-4.8 8.7-10.71 12.59-17.96 9.23-17.22 16.1-40.46 20.4-69.06.35-2.35-.43-4.74-2.11-6.42s-4.06-2.47-6.42-2.12c-36.89 5.53-64.3 15.08-81.6 28.41-5.17-3.79-10.55-7.34-16.13-10.61-.03-.02-.07-.04-.1-.06-5.01-2.93-10.15-5.61-15.39-8.07 26.69-26.82 75.15-43.06 144.35-48.3zm-63.39 120.3c-10.09-16.29-22.6-30.98-37.13-43.56 10.83-7.39 29.49-15.8 61.42-21.59-4.03 22.2-9.77 40.33-17.1 53.99-2.29 4.26-4.7 7.98-7.19 11.16zm-402.47-104.24c-.33-4.34 1.26-8.61 4.35-11.7s7.36-4.68 11.7-4.35c69.2 5.24 117.66 21.48 144.32 48.3-5.21 2.44-10.33 5.11-15.32 8.03-.05.03-.11.06-.16.1-5.58 3.27-10.96 6.82-16.14 10.61-17.28-13.32-44.68-22.87-81.59-28.4-2.35-.35-4.73.43-6.42 2.12-1.68 1.68-2.47 4.06-2.11 6.42 4.31 28.61 11.17 51.85 20.4 69.06 3.89 7.25 8.04 13.17 12.59 17.97-4.25 8.36-7.92 17.07-10.92 26.07-.9 2.69-1.99 5.4-3.22 8.11-32.33-24.31-51.66-75.48-57.48-152.34zm79.46 104.23c-2.5-3.18-4.91-6.89-7.19-11.16-7.33-13.66-13.06-31.79-17.1-53.99 31.84 5.76 50.51 14.13 61.42 21.58-14.53 12.59-27.04 27.28-37.13 43.57zm398.94 155-21.9 27.54c-1.58 1.98-2.05 4.63-1.24 7.04 2.33 7-.32 14.75-6.47 18.85l-36.57 24.38c-50.88 33.93-110.1 51.86-171.26 51.86s-120.38-17.93-171.26-51.85l-36.57-24.38c-6.14-4.09-8.8-11.85-6.47-18.85.8-2.41.33-5.05-1.24-7.04l-21.9-27.55c-5.52-6.95-4.54-16.92 2.23-22.7 46.23-39.49 63.15-69.42 69.21-87.58 13.42-40.25 40.98-74.23 77.54-95.64.05-.03.11-.06.16-.09 26.75-15.65 57.29-23.92 88.32-23.92 31.04 0 61.59 8.28 88.35 23.94.02.01.04.02.06.03 36.63 21.45 64.19 55.43 77.6 95.68 6.05 18.16 22.97 48.09 69.21 87.58 6.75 5.78 7.73 15.75 2.2 22.7z"></path><path d="m408.33 261.21c0-31.71-25.79-57.5-57.5-57.5s-57.5 25.79-57.5 57.5 25.79 57.5 57.5 57.5 57.5-25.79 57.5-57.5zm-57.5 42.5c-23.43 0-42.5-19.07-42.5-42.5s19.07-42.5 42.5-42.5 42.5 19.07 42.5 42.5-19.07 42.5-42.5 42.5z"></path><path d="m207.12 235.09c-6.12-4.47-13.59-6.18-21.03-4.83-16.78 3.07-33.08 3.07-49.85.01-7.32-1.34-14.99.41-21.04 4.79-6.09 4.42-10 10.93-11.01 18.33-.48 3.51-.63 7.1-.46 10.67 1.44 29.52 25.7 53.5 55.24 54.6.74.03 1.48.04 2.22.04 14.96 0 29.04-5.67 39.86-16.09 11.36-10.94 17.61-25.65 17.61-41.41 0-2.48-.16-4.98-.48-7.43-.95-7.44-4.99-14.25-11.06-18.68zm-16.47 56.73c-8.39 8.08-19.45 12.29-31.11 11.86-21.83-.81-39.75-18.53-40.82-40.34-.13-2.65-.02-5.32.34-7.92.45-3.31 2.21-6.23 4.95-8.22 2.16-1.57 4.69-2.39 7.28-2.39.75 0 1.5.07 2.25.21 18.58 3.39 36.64 3.39 55.24-.01 3.35-.61 6.72.16 9.49 2.19 2.8 2.05 4.59 5.07 5.04 8.51.23 1.81.35 3.66.35 5.5.01 11.66-4.61 22.53-13.01 30.61z"></path><path d="m165.1 214.8c4.87 0 9.8-1.24 14.31-3.84 3.59-2.07 4.82-6.66 2.75-10.25s-6.66-4.81-10.25-2.75c-6.55 3.78-14.95 1.53-18.73-5.02-2.07-3.59-6.66-4.82-10.25-2.75s-4.82 6.66-2.75 10.25c5.32 9.21 14.99 14.36 24.92 14.36z"></path><path d="m335.83 177.14c1.92 0 3.84-.73 5.3-2.2 5.35-5.35 14.05-5.35 19.39 0 2.93 2.93 7.68 2.93 10.61 0s2.93-7.68 0-10.61c-11.19-11.19-29.41-11.2-40.61 0-2.93 2.93-2.93 7.68 0 10.61 1.47 1.47 3.39 2.2 5.31 2.2z"></path><path d="m118.97 330.1c-18.39-7.4-47.21-7.4-65.6 0-3.84 1.55-5.7 5.92-4.16 9.76 1.18 2.92 3.99 4.7 6.96 4.7.93 0 1.88-.17 2.8-.54 14.74-5.93 39.66-5.93 54.4 0 3.84 1.55 8.21-.32 9.76-4.16 1.54-3.85-.32-8.22-4.16-9.76z"></path><path d="m115.12 354.63c-13.64 1.94-30.99 11.95-39.49 22.8-2.55 3.26-1.98 7.97 1.28 10.53 1.37 1.08 3 1.6 4.62 1.6 2.23 0 4.43-.99 5.91-2.87 6.2-7.91 19.84-15.79 29.79-17.2 4.1-.58 6.95-4.38 6.37-8.48-.59-4.11-4.38-6.96-8.48-6.38z"></path><path d="m458.63 330.1c-18.39-7.4-47.21-7.4-65.6 0-3.84 1.55-5.7 5.92-4.16 9.76 1.55 3.84 5.91 5.7 9.76 4.16 14.75-5.93 39.66-5.93 54.4 0 .92.37 1.86.54 2.8.54 2.97 0 5.78-1.78 6.96-4.7 1.54-3.85-.32-8.22-4.16-9.76z"></path><path d="m396.88 354.63c-4.09-.58-7.9 2.27-8.48 6.37s2.27 7.9 6.37 8.48c9.95 1.41 23.59 9.29 29.79 17.2 1.48 1.89 3.68 2.87 5.91 2.87 1.62 0 3.25-.52 4.62-1.6 3.26-2.55 3.83-7.27 1.28-10.53-8.5-10.84-25.84-20.85-39.49-22.79z"></path><path d="m256.02 271.21c4.14 0 7.5-3.36 7.5-7.5s-3.36-7.5-7.5-7.5h-.01c-4.14 0-7.49 3.36-7.49 7.5s3.36 7.5 7.5 7.5z"></path><path d="m279.24 322.01c-9.71-4.89-15.74-14.68-15.74-25.55v-2.75c0-4.14-3.36-7.5-7.5-7.5s-7.5 3.36-7.5 7.5v2.75c0 10.87-6.03 20.66-15.74 25.55-3.7 1.86-5.19 6.37-3.33 10.07 1.32 2.62 3.96 4.13 6.71 4.13 1.13 0 2.28-.26 3.37-.8 6.81-3.43 12.41-8.45 16.5-14.47 4.09 6.02 9.69 11.04 16.5 14.47 1.08.54 2.23.8 3.37.8 2.74 0 5.39-1.51 6.71-4.13 1.84-3.7.35-8.2-3.35-10.07z"></path></g></g></svg>